<svg width="21" height="22" viewBox="0 0 21 22" fill="none" xmlns="http://www.w3.org/2000/svg">
<path d="M2.79998 22C2.19498 22 1.67724 21.7848 1.24678 21.3543C0.816309 20.9238 0.600709 20.4057 0.599976 19.8V4.4C0.599976 3.795 0.815576 3.27727 1.24678 2.8468C1.67798 2.41633 2.19571 2.20073 2.79998 2.2H7.41997C7.65831 1.54 8.05724 1.00833 8.61677 0.605C9.17631 0.201667 9.80404 0 10.5 0C11.1959 0 11.824 0.201667 12.3843 0.605C12.9445 1.00833 13.3431 1.54 13.58 2.2H18.2C18.805 2.2 19.3231 2.4156 19.7543 2.8468C20.1855 3.278 20.4007 3.79573 20.4 4.4V19.8C20.4 20.405 20.1847 20.9231 19.7543 21.3543C19.3238 21.7855 18.8057 22.0007 18.2 22H2.79998ZM2.79998 19.8H18.2V4.4H2.79998V19.8ZM4.99998 17.6H12.7V15.4H4.99998V17.6ZM4.99998 13.2H16V11H4.99998V13.2ZM4.99998 8.8H16V6.6H4.99998V8.8ZM10.5 3.575C10.7383 3.575 10.9356 3.4969 11.0918 3.3407C11.248 3.1845 11.3257 2.9876 11.325 2.75C11.3242 2.5124 11.2461 2.3155 11.0907 2.1593C10.9352 2.0031 10.7383 1.925 10.5 1.925C10.2616 1.925 10.0647 2.0031 9.90928 2.1593C9.75381 2.3155 9.67571 2.5124 9.67497 2.75C9.67424 2.9876 9.75234 3.18487 9.90928 3.3418C10.0662 3.49873 10.2631 3.57647 10.5 3.575Z" fill="#3F414E" fill-opacity="0.7"/>
</svg>
