<svg width="24" height="24" viewBox="0 0 24 24" fill="none" xmlns="http://www.w3.org/2000/svg">
<path fill-rule="evenodd" clip-rule="evenodd" d="M11.9999 3C7.02931 3 2.99988 7.02944 2.99988 12C2.99988 16.9706 7.02931 21 11.9999 21C16.9704 21 20.9999 16.9706 20.9999 12C20.9999 7.02944 16.9704 3 11.9999 3ZM0.999878 12C0.999878 5.92487 5.92475 1 11.9999 1C18.075 1 22.9999 5.92487 22.9999 12C22.9999 18.0751 18.075 23 11.9999 23C5.92475 23 0.999878 18.0751 0.999878 12Z" fill="#3F414E"/>
<path fill-rule="evenodd" clip-rule="evenodd" d="M11.9999 5C12.5522 5 12.9999 5.44772 12.9999 6V11.382L16.4471 13.1056C16.9411 13.3526 17.1413 13.9532 16.8943 14.4472C16.6473 14.9412 16.0466 15.1414 15.5527 14.8944L11.5527 12.8944C11.2139 12.725 10.9999 12.3788 10.9999 12V6C10.9999 5.44772 11.4476 5 11.9999 5Z" fill="#3F414E"/>
</svg>
