<svg width="25" height="24" viewBox="0 0 25 24" fill="none" xmlns="http://www.w3.org/2000/svg">
<g clip-path="url(#clip0_190_2237)">
<path d="M23.625 2H1.625C1.35978 2 1.10543 2.10536 0.917893 2.29289C0.730357 2.48043 0.625 2.73478 0.625 3L0.625 21C0.625 21.2652 0.730357 21.5196 0.917893 21.7071C1.10543 21.8946 1.35978 22 1.625 22H23.625C23.8902 22 24.1446 21.8946 24.3321 21.7071C24.5196 21.5196 24.625 21.2652 24.625 21V3C24.625 2.73478 24.5196 2.48043 24.3321 2.29289C24.1446 2.10536 23.8902 2 23.625 2ZM22.625 20H20.625V19H15.625V20H2.625V4H22.625V20ZM10.915 9.71C10.915 9.25648 11.0952 8.82154 11.4158 8.50085C11.7365 8.18016 12.1715 8 12.625 8C13.575 8 14.335 8.77 14.335 9.71C14.335 10.66 13.575 11.43 12.625 11.43C11.675 11.43 10.915 10.66 10.915 9.71ZM6.335 11.29C6.335 10.58 6.915 10 7.625 10C7.96713 10 8.29525 10.1359 8.53717 10.3778C8.77909 10.6198 8.915 10.9479 8.915 11.29C8.915 12 8.335 12.57 7.625 12.57C6.915 12.57 6.335 12 6.335 11.29ZM16.335 11.29C16.335 10.9479 16.4709 10.6198 16.7128 10.3778C16.9548 10.1359 17.2829 10 17.625 10C17.9671 10 18.2952 10.1359 18.5372 10.3778C18.7791 10.6198 18.915 10.9479 18.915 11.29C18.915 12 18.335 12.57 17.625 12.57C16.915 12.57 16.335 12 16.335 11.29ZM20.625 15.14V16H4.625V15.14C4.625 14.2 6.175 13.43 7.625 13.43C8.175 13.43 8.735 13.54 9.225 13.73C9.975 13.04 11.325 12.57 12.625 12.57C13.925 12.57 15.275 13.04 16.025 13.73C16.515 13.54 17.075 13.43 17.625 13.43C19.075 13.43 20.625 14.2 20.625 15.14Z" fill="#3F414E"/>
</g>
<defs>
<clipPath id="clip0_190_2237">
<rect width="24" height="24" fill="white" transform="translate(0.625)"/>
</clipPath>
</defs>
</svg>
