<svg width="25" height="24" viewBox="0 0 25 24" fill="none" xmlns="http://www.w3.org/2000/svg">
<path d="M19.8008 23.3L19.2008 22.8C17.2008 20.9 15.8008 19.7 15.8008 18.2C15.8008 17 16.8008 16 18.0008 16C18.7008 16 19.4008 16.3 19.8008 16.8C20.2008 16.3 20.9008 16 21.6008 16C22.8008 16 23.8008 16.9 23.8008 18.2C23.8008 19.7 22.4008 20.9 20.4008 22.8L19.8008 23.3ZM18.8008 2C19.9008 2 20.8008 2.9 20.8008 4V13.08L19.8008 13L18.8008 13.08V4H13.8008V12L11.3008 9.75L8.80078 12V4H6.80078V20H13.8808C14.0008 20.72 14.2508 21.39 14.6008 22H6.80078C5.70078 22 4.80078 21.1 4.80078 20V4C4.80078 2.9 5.70078 2 6.80078 2H18.8008Z" fill="#3F414E"/>
</svg>
